<mxfile host="app.diagrams.net" modified="2022-12-06T07:56:08.447Z" agent="5.0 (Windows)" etag="3Hml9hZrqCVv57FO6GnY" version="20.6.0" type="github">
  <diagram id="C5RBs43oDa-KdzZeNtuy" name="Page-1">
    <mxGraphModel dx="1422" dy="742" grid="1" gridSize="10" guides="1" tooltips="1" connect="1" arrows="1" fold="1" page="1" pageScale="1" pageWidth="827" pageHeight="1169" math="0" shadow="1">
      <root>
        <mxCell id="WIyWlLk6GJQsqaUBKTNV-0" />
        <mxCell id="WIyWlLk6GJQsqaUBKTNV-1" parent="WIyWlLk6GJQsqaUBKTNV-0" />
        <mxCell id="dfxJ_LqpfSkEqRbcR8hq-66" style="edgeStyle=orthogonalEdgeStyle;rounded=1;orthogonalLoop=1;jettySize=auto;html=1;exitX=1;exitY=0.5;exitDx=0;exitDy=0;entryX=0;entryY=0.5;entryDx=0;entryDy=0;curved=1;sketch=1;" parent="WIyWlLk6GJQsqaUBKTNV-1" source="dfxJ_LqpfSkEqRbcR8hq-4" target="dfxJ_LqpfSkEqRbcR8hq-22" edge="1">
          <mxGeometry relative="1" as="geometry" />
        </mxCell>
        <mxCell id="dfxJ_LqpfSkEqRbcR8hq-4" value="students" style="swimlane;whiteSpace=wrap;html=1;rounded=1;sketch=1;" parent="WIyWlLk6GJQsqaUBKTNV-1" vertex="1">
          <mxGeometry x="80" y="410" width="150" height="130" as="geometry" />
        </mxCell>
        <mxCell id="dfxJ_LqpfSkEqRbcR8hq-7" value="stu_id" style="text;align=left;verticalAlign=middle;spacingLeft=4;spacingRight=4;overflow=hidden;points=[[0,0.5],[1,0.5]];portConstraint=eastwest;rotatable=0;whiteSpace=wrap;html=1;rounded=1;sketch=1;" parent="dfxJ_LqpfSkEqRbcR8hq-4" vertex="1">
          <mxGeometry y="20" width="80" height="30" as="geometry" />
        </mxCell>
        <mxCell id="dfxJ_LqpfSkEqRbcR8hq-8" value="exams_id" style="text;align=left;verticalAlign=middle;spacingLeft=4;spacingRight=4;overflow=hidden;points=[[0,0.5],[1,0.5]];portConstraint=eastwest;rotatable=0;whiteSpace=wrap;html=1;rounded=1;sketch=1;" parent="dfxJ_LqpfSkEqRbcR8hq-4" vertex="1">
          <mxGeometry y="50" width="80" height="30" as="geometry" />
        </mxCell>
        <mxCell id="dfxJ_LqpfSkEqRbcR8hq-67" value="exams_data" style="text;align=left;verticalAlign=middle;spacingLeft=4;spacingRight=4;overflow=hidden;points=[[0,0.5],[1,0.5]];portConstraint=eastwest;rotatable=0;whiteSpace=wrap;html=1;rounded=1;sketch=1;" parent="dfxJ_LqpfSkEqRbcR8hq-4" vertex="1">
          <mxGeometry y="80" width="80" height="30" as="geometry" />
        </mxCell>
        <mxCell id="dfxJ_LqpfSkEqRbcR8hq-68" style="edgeStyle=orthogonalEdgeStyle;rounded=1;orthogonalLoop=1;jettySize=auto;html=1;exitX=0.5;exitY=0;exitDx=0;exitDy=0;entryX=1;entryY=0.5;entryDx=0;entryDy=0;curved=1;sketch=1;" parent="WIyWlLk6GJQsqaUBKTNV-1" source="dfxJ_LqpfSkEqRbcR8hq-13" target="dfxJ_LqpfSkEqRbcR8hq-39" edge="1">
          <mxGeometry relative="1" as="geometry" />
        </mxCell>
        <mxCell id="dfxJ_LqpfSkEqRbcR8hq-13" value="sections" style="swimlane;whiteSpace=wrap;html=1;rounded=1;sketch=1;" parent="WIyWlLk6GJQsqaUBKTNV-1" vertex="1">
          <mxGeometry x="680" y="500" width="90" height="140" as="geometry" />
        </mxCell>
        <mxCell id="dfxJ_LqpfSkEqRbcR8hq-14" value="dept_name" style="text;align=left;verticalAlign=middle;spacingLeft=4;spacingRight=4;overflow=hidden;points=[[0,0.5],[1,0.5]];portConstraint=eastwest;rotatable=0;whiteSpace=wrap;html=1;rounded=1;sketch=1;" parent="dfxJ_LqpfSkEqRbcR8hq-13" vertex="1">
          <mxGeometry y="50" width="80" height="30" as="geometry" />
        </mxCell>
        <mxCell id="dfxJ_LqpfSkEqRbcR8hq-15" value="year" style="text;align=left;verticalAlign=middle;spacingLeft=4;spacingRight=4;overflow=hidden;points=[[0,0.5],[1,0.5]];portConstraint=eastwest;rotatable=0;whiteSpace=wrap;html=1;rounded=1;sketch=1;" parent="dfxJ_LqpfSkEqRbcR8hq-13" vertex="1">
          <mxGeometry y="80" width="80" height="30" as="geometry" />
        </mxCell>
        <mxCell id="dfxJ_LqpfSkEqRbcR8hq-16" value="&lt;u&gt;sec_id&lt;/u&gt;" style="text;align=left;verticalAlign=middle;spacingLeft=4;spacingRight=4;overflow=hidden;points=[[0,0.5],[1,0.5]];portConstraint=eastwest;rotatable=0;whiteSpace=wrap;html=1;rounded=1;sketch=1;" parent="dfxJ_LqpfSkEqRbcR8hq-13" vertex="1">
          <mxGeometry y="20" width="80" height="30" as="geometry" />
        </mxCell>
        <mxCell id="dfxJ_LqpfSkEqRbcR8hq-17" value="semester" style="text;align=left;verticalAlign=middle;spacingLeft=4;spacingRight=4;overflow=hidden;points=[[0,0.5],[1,0.5]];portConstraint=eastwest;rotatable=0;whiteSpace=wrap;html=1;rounded=1;sketch=1;" parent="dfxJ_LqpfSkEqRbcR8hq-13" vertex="1">
          <mxGeometry y="110" width="80" height="30" as="geometry" />
        </mxCell>
        <mxCell id="dfxJ_LqpfSkEqRbcR8hq-51" style="edgeStyle=orthogonalEdgeStyle;rounded=1;orthogonalLoop=1;jettySize=auto;html=1;exitX=0.5;exitY=0;exitDx=0;exitDy=0;entryX=0;entryY=0.5;entryDx=0;entryDy=0;curved=1;sketch=1;" parent="WIyWlLk6GJQsqaUBKTNV-1" source="dfxJ_LqpfSkEqRbcR8hq-18" target="dfxJ_LqpfSkEqRbcR8hq-44" edge="1">
          <mxGeometry relative="1" as="geometry" />
        </mxCell>
        <mxCell id="dfxJ_LqpfSkEqRbcR8hq-18" value="exams" style="swimlane;whiteSpace=wrap;html=1;rounded=1;sketch=1;" parent="WIyWlLk6GJQsqaUBKTNV-1" vertex="1">
          <mxGeometry x="370" y="390" width="80" height="180" as="geometry" />
        </mxCell>
        <mxCell id="dfxJ_LqpfSkEqRbcR8hq-19" value="date" style="text;align=left;verticalAlign=middle;spacingLeft=4;spacingRight=4;overflow=hidden;points=[[0,0.5],[1,0.5]];portConstraint=eastwest;rotatable=0;whiteSpace=wrap;html=1;rounded=1;sketch=1;" parent="dfxJ_LqpfSkEqRbcR8hq-18" vertex="1">
          <mxGeometry y="110" width="80" height="30" as="geometry" />
        </mxCell>
        <mxCell id="dfxJ_LqpfSkEqRbcR8hq-20" value="place" style="text;align=left;verticalAlign=middle;spacingLeft=4;spacingRight=4;overflow=hidden;points=[[0,0.5],[1,0.5]];portConstraint=eastwest;rotatable=0;whiteSpace=wrap;html=1;rounded=1;sketch=1;" parent="dfxJ_LqpfSkEqRbcR8hq-18" vertex="1">
          <mxGeometry y="140" width="80" height="30" as="geometry" />
        </mxCell>
        <mxCell id="dfxJ_LqpfSkEqRbcR8hq-22" value="time" style="text;align=left;verticalAlign=middle;spacingLeft=4;spacingRight=4;overflow=hidden;points=[[0,0.5],[1,0.5]];portConstraint=eastwest;rotatable=0;whiteSpace=wrap;html=1;rounded=1;sketch=1;" parent="dfxJ_LqpfSkEqRbcR8hq-18" vertex="1">
          <mxGeometry y="80" width="80" height="30" as="geometry" />
        </mxCell>
        <mxCell id="dfxJ_LqpfSkEqRbcR8hq-21" value="&lt;u&gt;exam_id&lt;/u&gt;" style="text;align=left;verticalAlign=middle;spacingLeft=4;spacingRight=4;overflow=hidden;points=[[0,0.5],[1,0.5]];portConstraint=eastwest;rotatable=0;whiteSpace=wrap;html=1;rounded=1;sketch=1;" parent="dfxJ_LqpfSkEqRbcR8hq-18" vertex="1">
          <mxGeometry y="20" width="80" height="30" as="geometry" />
        </mxCell>
        <mxCell id="dfxJ_LqpfSkEqRbcR8hq-63" value="&lt;u&gt;exams_data&lt;/u&gt;" style="text;align=left;verticalAlign=middle;spacingLeft=4;spacingRight=4;overflow=hidden;points=[[0,0.5],[1,0.5]];portConstraint=eastwest;rotatable=0;whiteSpace=wrap;html=1;rounded=1;sketch=1;" parent="dfxJ_LqpfSkEqRbcR8hq-18" vertex="1">
          <mxGeometry y="50" width="80" height="30" as="geometry" />
        </mxCell>
        <mxCell id="dfxJ_LqpfSkEqRbcR8hq-48" style="edgeStyle=orthogonalEdgeStyle;rounded=1;orthogonalLoop=1;jettySize=auto;html=1;exitX=0.5;exitY=0;exitDx=0;exitDy=0;entryX=0.5;entryY=1;entryDx=0;entryDy=0;curved=1;sketch=1;" parent="WIyWlLk6GJQsqaUBKTNV-1" source="dfxJ_LqpfSkEqRbcR8hq-23" target="dfxJ_LqpfSkEqRbcR8hq-39" edge="1">
          <mxGeometry relative="1" as="geometry" />
        </mxCell>
        <mxCell id="dfxJ_LqpfSkEqRbcR8hq-23" value="courses" style="swimlane;whiteSpace=wrap;html=1;startSize=23;rounded=1;sketch=1;" parent="WIyWlLk6GJQsqaUBKTNV-1" vertex="1">
          <mxGeometry x="560" y="490" width="80" height="110" as="geometry" />
        </mxCell>
        <mxCell id="dfxJ_LqpfSkEqRbcR8hq-24" value="title" style="text;align=left;verticalAlign=middle;spacingLeft=4;spacingRight=4;overflow=hidden;points=[[0,0.5],[1,0.5]];portConstraint=eastwest;rotatable=0;whiteSpace=wrap;html=1;rounded=1;sketch=1;" parent="dfxJ_LqpfSkEqRbcR8hq-23" vertex="1">
          <mxGeometry y="50" width="80" height="30" as="geometry" />
        </mxCell>
        <mxCell id="dfxJ_LqpfSkEqRbcR8hq-25" value="credits" style="text;align=left;verticalAlign=middle;spacingLeft=4;spacingRight=4;overflow=hidden;points=[[0,0.5],[1,0.5]];portConstraint=eastwest;rotatable=0;whiteSpace=wrap;html=1;rounded=1;sketch=1;" parent="dfxJ_LqpfSkEqRbcR8hq-23" vertex="1">
          <mxGeometry y="80" width="80" height="30" as="geometry" />
        </mxCell>
        <mxCell id="dfxJ_LqpfSkEqRbcR8hq-26" value="&lt;u&gt;course_id&lt;/u&gt;" style="text;align=left;verticalAlign=middle;spacingLeft=4;spacingRight=4;overflow=hidden;points=[[0,0.5],[1,0.5]];portConstraint=eastwest;rotatable=0;whiteSpace=wrap;html=1;rounded=1;sketch=1;" parent="dfxJ_LqpfSkEqRbcR8hq-23" vertex="1">
          <mxGeometry y="20" width="80" height="30" as="geometry" />
        </mxCell>
        <mxCell id="dfxJ_LqpfSkEqRbcR8hq-39" value="exams_data" style="swimlane;whiteSpace=wrap;html=1;rounded=1;sketch=1;" parent="WIyWlLk6GJQsqaUBKTNV-1" vertex="1">
          <mxGeometry x="570" y="280" width="90" height="160" as="geometry" />
        </mxCell>
        <mxCell id="dfxJ_LqpfSkEqRbcR8hq-44" value="sec_id" style="text;align=left;verticalAlign=middle;spacingLeft=4;spacingRight=4;overflow=hidden;points=[[0,0.5],[1,0.5]];portConstraint=eastwest;rotatable=0;whiteSpace=wrap;html=1;rounded=1;sketch=1;" parent="dfxJ_LqpfSkEqRbcR8hq-39" vertex="1">
          <mxGeometry y="65" width="70" height="30" as="geometry" />
        </mxCell>
        <mxCell id="dfxJ_LqpfSkEqRbcR8hq-45" value="course_id" style="text;align=left;verticalAlign=middle;spacingLeft=4;spacingRight=4;overflow=hidden;points=[[0,0.5],[1,0.5]];portConstraint=eastwest;rotatable=0;whiteSpace=wrap;html=1;rounded=1;sketch=1;" parent="dfxJ_LqpfSkEqRbcR8hq-39" vertex="1">
          <mxGeometry y="95" width="80" height="30" as="geometry" />
        </mxCell>
        <mxCell id="dfxJ_LqpfSkEqRbcR8hq-65" value="&lt;u&gt;exams_data&lt;/u&gt;" style="text;align=left;verticalAlign=middle;spacingLeft=4;spacingRight=4;overflow=hidden;points=[[0,0.5],[1,0.5]];portConstraint=eastwest;rotatable=0;whiteSpace=wrap;html=1;rounded=1;sketch=1;" parent="dfxJ_LqpfSkEqRbcR8hq-39" vertex="1">
          <mxGeometry y="20" width="80" height="30" as="geometry" />
        </mxCell>
        <mxCell id="dfxJ_LqpfSkEqRbcR8hq-69" value="mark" style="text;align=left;verticalAlign=middle;spacingLeft=4;spacingRight=4;overflow=hidden;points=[[0,0.5],[1,0.5]];portConstraint=eastwest;rotatable=0;whiteSpace=wrap;html=1;rounded=1;sketch=1;" parent="dfxJ_LqpfSkEqRbcR8hq-39" vertex="1">
          <mxGeometry y="40" width="70" height="30" as="geometry" />
        </mxCell>
      </root>
    </mxGraphModel>
  </diagram>
</mxfile>
